<?xml version="1.0" encoding="UTF-8"?>
<svg width="200" height="200" viewBox="0 0 200 200" xmlns="http://www.w3.org/2000/svg">
    <!-- Background circle with gradient -->
    <defs>
        <linearGradient id="bgGradient" x1="0%" y1="0%" x2="100%" y2="100%">
            <stop offset="0%" style="stop-color:#4F46E5;stop-opacity:1" />
            <stop offset="100%" style="stop-color:#7C3AED;stop-opacity:1" />
        </linearGradient>
    </defs>
    
    <!-- Main circle background -->
    <circle cx="100" cy="100" r="90" fill="url(#bgGradient)" />
    
    <!-- Document stack effect -->
    <g transform="translate(50, 40)">
        <!-- Back document -->
        <rect x="0" y="10" width="100" height="120" rx="8" fill="#ffffff" opacity="0.2" transform="rotate(-5)" />
        
        <!-- Middle document -->
        <rect x="0" y="5" width="100" height="120" rx="8" fill="#ffffff" opacity="0.4" transform="rotate(-2)" />
        
        <!-- Front document -->
        <rect x="0" y="0" width="100" height="120" rx="8" fill="#ffffff" />
        
        <!-- Document lines -->
        <g fill="#4F46E5" opacity="0.6">
            <rect x="15" y="25" width="70" height="4" rx="2" />
            <rect x="15" y="40" width="70" height="4" rx="2" />
            <rect x="15" y="55" width="70" height="4" rx="2" />
            <rect x="15" y="70" width="50" height="4" rx="2" />
        </g>
        
        <!-- Connection dots -->
        <circle cx="110" cy="30" r="4" fill="#ffffff" />
        <circle cx="110" cy="60" r="4" fill="#ffffff" />
        <circle cx="110" cy="90" r="4" fill="#ffffff" />
        
        <!-- Connection lines -->
        <path d="M110,30 L130,30 L130,60 L110,60" stroke="#ffffff" stroke-width="2" fill="none" />
        <path d="M110,60 L130,60 L130,90 L110,90" stroke="#ffffff" stroke-width="2" fill="none" />
    </g>
</svg> 